<svg width="588" height="180" viewBox="0 0 588 180" fill="none" xmlns="http://www.w3.org/2000/svg">
<mask id="path-1-outside-1" maskUnits="userSpaceOnUse" x="0.847992" y="0.319992" width="588" height="180" fill="black">
<rect fill="white" x="0.847992" y="0.319992" width="588" height="180"/>
<path d="M83.056 137.824C82.192 137.824 81.328 137.728 80.464 137.536C75.856 136.672 73.552 132.592 73.552 125.296C73.552 113.488 79.504 93.376 91.408 64.96C96.016 54.208 99.424 43.744 101.632 33.568C102.496 29.632 102.928 26.512 102.928 24.208C102.928 21.808 102.832 19.936 102.64 18.592C102.16 14.368 100.576 11.44 97.888 9.80799C93.088 7.21599 87.712 5.91999 81.76 5.91999C75.52 5.91999 68.944 7.45599 62.032 10.528C55.12 13.6 48.592 17.344 42.448 21.76C36.4 26.176 30.88 31.456 25.888 37.6C20.896 43.648 17.152 50.032 14.656 56.752C12.256 63.376 11.056 69.376 11.056 74.752C11.056 76.96 11.248 79.072 11.632 81.088C13.168 87.712 16.048 92.656 20.272 95.92C24.496 99.184 29.488 100.816 35.248 100.816C43.312 100.816 50.848 97.264 57.856 90.16C64.96 83.056 68.512 75.52 68.512 67.552C68.512 63.232 67.648 60.112 65.92 58.192C64.192 56.272 62.416 55.312 60.592 55.312C58.768 55.312 56.944 55.6 55.12 56.176C53.296 56.656 52.384 56.608 52.384 56.032C52.384 55.36 53.488 54.544 55.696 53.584C57.904 52.528 60.208 52 62.608 52C65.008 52 67.216 52.72 69.232 54.16C72.976 57.04 74.848 61.408 74.848 67.264C74.848 73.12 72.592 79.024 68.08 84.976C63.664 90.832 58.192 95.584 51.664 99.232C45.136 102.784 38.656 104.56 32.224 104.56C25.888 104.56 19.984 102.256 14.512 97.648C9.03999 92.944 5.39199 86.656 3.56799 78.784C3.08799 76.48 2.84799 74.032 2.84799 71.44C2.84799 65.392 4.33599 58.816 7.31199 51.712C10.288 44.608 14.56 38.032 20.128 31.984C25.792 25.84 31.888 20.752 38.416 16.72C44.944 12.592 51.856 9.18399 59.152 6.49599C66.448 3.71199 73.312 2.31999 79.744 2.31999C86.176 2.31999 92.032 3.32799 97.312 5.34399C106.624 9.37599 111.28 17.92 111.28 30.976C111.28 40.576 107.824 52.48 100.912 66.688C96.592 75.52 92.752 85.024 89.392 95.2C84.4 110.272 81.904 120.736 81.904 126.592C81.904 131.008 83.392 133.216 86.368 133.216C92.32 133.216 102.736 125.488 117.616 110.032C128.08 99.184 136.288 87.28 142.24 74.32C146.08 66.064 148 58.48 148 51.568C148 47.92 147.712 45.376 147.136 43.936C146.56 42.4 146.176 41.44 145.984 41.056C145.792 40.576 145.408 40.192 144.832 39.904C144.256 39.52 143.872 39.328 143.68 39.328C142.336 38.944 140.944 38.656 139.504 38.464C138.064 38.176 137.2 37.504 136.912 36.448C136.72 35.392 137.248 34.768 138.496 34.576L141.232 34.864C145.648 36.112 149.488 39.232 152.752 44.224C154.576 47.008 155.488 50.368 155.488 54.304C155.488 58.144 154.576 62.704 152.752 67.984C148.336 79.696 141.52 91.264 132.304 102.688C123.088 114.016 113.968 122.704 104.944 128.752C96.016 134.8 88.72 137.824 83.056 137.824Z"/>
<path d="M158.888 101.824C157.544 105.088 156.872 108.736 156.872 112.768C156.872 115.456 157.448 117.616 158.6 119.248C159.848 120.784 161.576 121.552 163.784 121.552C172.52 121.552 180.44 113.344 187.544 96.928C188.216 95.392 189.032 94.72 189.992 94.912C190.376 95.008 190.568 95.248 190.568 95.632C190.568 96.016 189.464 98.56 187.256 103.264C185.144 107.872 182.984 111.616 180.776 114.496C175.88 121.216 169.832 124.576 162.632 124.576C158.792 124.576 155.528 123.328 152.84 120.832C150.152 118.336 148.808 114.928 148.808 110.608C148.808 106.288 149.816 101.728 151.832 96.928C153.944 92.032 156.776 87.52 160.328 83.392C163.88 79.168 167.96 76.096 172.568 74.176C174.776 73.216 176.888 72.736 178.904 72.736C180.92 72.736 182.792 73.312 184.52 74.464C186.152 75.808 186.968 77.296 186.968 78.928C186.968 84.688 183.512 90.208 176.6 95.488C174.488 97.12 171.512 98.608 167.672 99.952C163.832 101.2 160.904 101.824 158.888 101.824ZM183.08 78.784C183.08 76.864 182.312 75.904 180.776 75.904C178.088 75.904 174.008 79.216 168.536 85.84C165.272 89.872 162.392 94.384 159.896 99.376C161.528 99.376 163.88 98.8 166.952 97.648C170.12 96.496 172.856 94.96 175.16 93.04C180.44 88.528 183.08 83.776 183.08 78.784Z"/>
<path d="M194.757 81.808C195.045 81.232 195.189 80.464 195.189 79.504C195.189 78.544 194.565 77.296 193.317 75.76L201.237 75.616C203.445 75.616 204.741 76.048 205.125 76.912C205.509 77.68 205.221 78.928 204.261 80.656L192.741 107.584C190.341 113.248 187.365 119.584 183.813 126.592C187.557 125.152 190.293 124.048 192.021 123.28C193.749 122.512 195.813 121.12 198.213 119.104C200.709 117.088 202.821 114.784 204.549 112.192C206.373 109.504 209.397 104.176 213.621 96.208C214.293 94.864 214.869 94.336 215.349 94.624C215.925 94.912 216.213 95.296 216.213 95.776C216.213 96.256 215.397 98.128 213.765 101.392C212.229 104.56 210.645 107.536 209.013 110.32C207.381 113.104 205.269 115.936 202.677 118.816C200.085 121.696 197.205 124 194.037 125.728C190.869 127.456 186.645 129.28 181.365 131.2C173.973 144.64 166.485 154.528 158.901 160.864C156.021 163.264 152.613 165.28 148.677 166.912C144.741 168.64 140.661 169.504 136.437 169.504C132.117 169.504 128.805 168.592 126.501 166.768C124.197 165.04 123.045 162.928 123.045 160.432C123.045 157.936 123.765 155.104 125.205 151.936C127.701 147.04 132.213 143.104 138.741 140.128C143.637 137.824 150.117 135.664 158.181 133.648C166.245 131.728 171.429 130.432 173.733 129.76C176.133 125.632 177.573 123.136 178.053 122.272C178.437 121.312 181.893 114.112 188.421 100.672C186.885 100.672 186.453 99.904 187.125 98.368L194.757 81.808ZM127.941 155.248C126.885 157.36 126.357 159.28 126.357 161.008C126.357 162.736 127.029 164.08 128.373 165.04C129.717 166.096 131.349 166.624 133.269 166.624C138.837 166.624 144.837 163.744 151.269 157.984C160.293 149.92 166.869 142.048 170.997 134.368C155.061 138.592 145.125 141.568 141.189 143.296C134.949 145.984 130.533 149.968 127.941 155.248ZM207.861 67.984C206.517 69.136 205.029 69.712 203.397 69.712C201.765 69.712 200.517 69.184 199.653 68.128C198.789 67.072 198.357 66.16 198.357 65.392C198.357 64.624 198.405 63.76 198.501 62.8C198.693 61.84 199.461 60.784 200.805 59.632C202.149 58.48 203.637 57.904 205.269 57.904C206.901 57.904 208.149 58.432 209.013 59.488C209.973 60.448 210.453 61.312 210.453 62.08C210.453 62.848 210.357 63.76 210.165 64.816C209.973 65.776 209.205 66.832 207.861 67.984Z"/>
<path d="M257.044 101.824C255.7 105.088 255.028 108.736 255.028 112.768C255.028 115.456 255.604 117.616 256.756 119.248C258.004 120.784 259.732 121.552 261.94 121.552C270.676 121.552 278.596 113.344 285.7 96.928C286.372 95.392 287.188 94.72 288.148 94.912C288.532 95.008 288.724 95.248 288.724 95.632C288.724 96.016 287.62 98.56 285.412 103.264C283.3 107.872 281.14 111.616 278.932 114.496C274.036 121.216 267.988 124.576 260.788 124.576C256.948 124.576 253.684 123.328 250.996 120.832C248.308 118.336 246.964 114.928 246.964 110.608C246.964 106.288 247.972 101.728 249.988 96.928C252.1 92.032 254.932 87.52 258.484 83.392C262.036 79.168 266.116 76.096 270.724 74.176C272.932 73.216 275.044 72.736 277.06 72.736C279.076 72.736 280.948 73.312 282.676 74.464C284.308 75.808 285.124 77.296 285.124 78.928C285.124 84.688 281.668 90.208 274.756 95.488C272.644 97.12 269.668 98.608 265.828 99.952C261.988 101.2 259.06 101.824 257.044 101.824ZM281.236 78.784C281.236 76.864 280.468 75.904 278.932 75.904C276.244 75.904 272.164 79.216 266.692 85.84C263.428 89.872 260.548 94.384 258.052 99.376C259.684 99.376 262.036 98.8 265.108 97.648C268.276 96.496 271.012 94.96 273.316 93.04C278.596 88.528 281.236 83.776 281.236 78.784Z"/>
<path d="M338.099 57.472C333.491 67.456 331.187 76.384 331.187 84.256C331.187 100.48 336.755 110.416 347.891 114.064C351.155 114.928 354.467 115.36 357.827 115.36C361.283 115.36 364.739 114.928 368.195 114.064C375.107 112.24 381.299 109.504 386.771 105.856C392.243 102.208 395.699 98.704 397.139 95.344C400.979 86.416 405.107 81.952 409.523 81.952C411.731 81.952 413.219 83.2 413.987 85.696C414.371 86.656 414.467 87.712 414.275 88.864C413.315 96.352 411.251 103.792 408.083 111.184C404.915 118.48 400.451 126.88 394.691 136.384C406.211 136.48 416.723 137.728 426.227 140.128C428.243 140.608 429.251 141.28 429.251 142.144C429.251 143.2 427.859 143.392 425.075 142.72C418.451 140.992 408.899 140.128 396.419 140.128C395.267 140.128 394.019 140.128 392.675 140.128C386.819 148.576 378.995 156.016 369.203 162.448C359.507 168.976 350.051 173.44 340.835 175.84C335.747 177.184 331.427 177.856 327.875 177.856C324.323 177.856 321.347 177.424 318.947 176.56C311.939 173.968 308.435 170.56 308.435 166.336C308.435 165.088 308.771 163.744 309.443 162.304C312.035 156.544 318.851 151.216 329.891 146.32C338.243 142.576 347.027 140.032 356.243 138.688C365.555 137.344 375.971 136.576 387.491 136.384C394.595 124.384 399.443 112.576 402.035 100.96L402.611 98.512C398.003 102.928 392.771 106.864 386.915 110.32C381.155 113.68 376.115 116.032 371.795 117.376C364.883 119.584 359.171 120.688 354.659 120.688C350.243 120.688 346.355 120.064 342.995 118.816C336.851 116.704 331.859 112.48 328.019 106.144C323.891 99.424 321.827 91.408 321.827 82.096C321.827 72.784 324.275 62.8 329.171 52.144C322.835 45.616 319.667 38.704 319.667 31.408C319.667 24.016 322.643 17.008 328.595 10.384C329.747 9.13599 330.563 8.70399 331.043 9.08799C331.619 9.37599 331.427 10.192 330.467 11.536C326.147 17.296 323.987 23.104 323.987 28.96C323.987 35.68 326.483 41.968 331.475 47.824C332.051 46.576 333.107 44.704 334.643 42.208C342.131 29.92 352.307 20.512 365.171 13.984C375.251 8.79999 384.995 6.20799 394.403 6.20799C396.995 6.20799 399.587 6.39999 402.179 6.78399C414.563 8.70399 422.915 13.792 427.235 22.048C428.963 25.312 429.827 28.864 429.827 32.704C429.827 36.448 428.627 40.48 426.227 44.8C420.851 54.112 411.443 60.64 398.003 64.384C390.899 66.4 383.651 67.408 376.259 67.408C360.707 67.408 347.987 64.096 338.099 57.472ZM397.715 10.672C389.459 10.672 380.723 13.456 371.507 19.024C357.971 27.088 347.459 38.656 339.971 53.728C344.483 57.184 349.667 59.632 355.523 61.072C361.475 62.512 366.227 63.232 369.779 63.232C390.035 63.232 405.347 57.808 415.715 46.96C420.899 41.392 423.491 35.824 423.491 30.256C423.491 21.424 418.547 15.472 408.659 12.4C405.011 11.248 401.363 10.672 397.715 10.672ZM315.779 167.344C315.779 170.032 318.083 171.856 322.691 172.816C324.227 173.2 325.907 173.392 327.731 173.392C334.547 173.392 343.187 170.944 353.651 166.048C366.899 160 377.411 151.408 385.187 140.272C375.107 140.56 366.275 141.328 358.691 142.576C347.747 144.208 337.331 148.192 327.443 154.528C319.667 159.52 315.779 163.792 315.779 167.344Z"/>
<path d="M443.827 67.984C442.483 69.136 440.995 69.712 439.363 69.712C437.731 69.712 436.435 69.136 435.475 67.984C434.515 66.832 434.131 65.44 434.323 63.808C434.611 62.176 435.427 60.784 436.771 59.632C438.115 58.48 439.603 57.904 441.235 57.904C442.867 57.904 444.163 58.48 445.123 59.632C446.179 60.784 446.563 62.176 446.275 63.808C445.987 65.44 445.171 66.832 443.827 67.984ZM429.715 120.832C431.539 120.832 433.459 119.92 435.475 118.096C439.027 114.544 443.539 107.296 449.011 96.352C449.683 94.912 450.355 94.48 451.027 95.056C451.219 95.248 451.315 95.584 451.315 96.064C451.315 96.448 450.931 97.504 450.163 99.232C449.395 100.864 448.675 102.352 448.003 103.696C447.427 105.04 446.227 107.248 444.403 110.32C442.675 113.296 441.091 115.6 439.651 117.232C435.715 121.744 431.971 124 428.419 124C424.963 124 422.467 122.944 420.931 120.832C419.395 118.72 418.627 116.368 418.627 113.776C418.627 111.184 419.251 108.352 420.499 105.28L429.715 81.808C429.907 81.232 430.003 80.464 430.003 79.504C430.003 78.544 429.427 77.296 428.275 75.76L436.195 75.616C438.403 75.616 439.699 76.048 440.083 76.912C440.467 77.68 440.179 78.928 439.219 80.656L427.699 107.584C426.067 111.136 425.251 114.16 425.251 116.656C425.251 119.44 426.739 120.832 429.715 120.832Z"/>
<path d="M475.338 73.6C482.346 73.6 485.85 78.016 485.85 86.848C485.85 90.88 484.794 95.2 482.682 99.808C479.994 106.048 475.962 111.712 470.586 116.8C471.834 119.2 474.09 120.4 477.354 120.4C479.946 120.4 482.394 119.104 484.698 116.512C487.578 113.536 489.642 110.944 490.89 108.736C492.138 106.432 493.05 104.752 493.626 103.696C494.202 102.64 494.922 101.152 495.786 99.232C496.746 97.216 497.322 96.016 497.514 95.632C497.706 95.152 498.042 94.912 498.522 94.912C499.482 94.816 499.962 95.152 499.962 95.92C499.962 96.208 499.866 96.544 499.674 96.928L498.81 98.944C498.234 100.288 497.802 101.248 497.514 101.824C497.226 102.4 496.698 103.456 495.93 104.992C495.258 106.432 494.634 107.584 494.058 108.448C493.578 109.312 492.858 110.464 491.898 111.904C491.034 113.344 490.218 114.496 489.45 115.36C488.778 116.224 487.914 117.184 486.858 118.24C485.802 119.296 484.794 120.112 483.834 120.688C481.434 122.128 479.178 122.848 477.066 122.848C473.13 122.848 470.058 121.6 467.85 119.104C463.434 122.368 459.354 124 455.61 124C448.602 124 445.098 119.584 445.098 110.752C445.098 106.72 446.154 102.4 448.266 97.792C451.146 91.072 455.178 85.36 460.362 80.656C465.642 75.952 470.634 73.6 475.338 73.6ZM476.922 78.064C474.33 78.064 471.258 79.792 467.706 83.248C464.154 86.704 460.986 91.408 458.202 97.36C454.842 104.272 453.162 109.936 453.162 114.352C453.162 118.768 454.842 120.976 458.202 120.976C460.602 120.976 463.29 119.68 466.266 117.088C464.73 114.88 463.962 112.528 463.962 110.032C464.154 105.904 465.834 103.84 469.002 103.84C470.25 103.84 471.258 104.272 472.026 105.136C472.89 106 473.322 106.816 473.322 107.584C473.322 108.256 473.226 108.976 473.034 109.744C474.666 107.344 476.538 103.936 478.65 99.52C481.05 94.624 482.25 89.824 482.25 85.12C482.25 80.416 480.474 78.064 476.922 78.064Z"/>
<path d="M535.668 73.744L534.948 76.336C530.052 91.6 525.54 102.736 521.412 109.744C515.364 119.92 509.028 125.008 502.404 125.008C497.028 125.008 494.34 122.416 494.34 117.232C494.34 113.296 495.78 107.2 498.66 98.944C497.7 100.48 496.932 101.008 496.356 100.528C495.876 99.952 495.78 99.28 496.068 98.512L498.66 93.616C500.484 89.872 501.396 86.128 501.396 82.384C501.396 78.64 500.628 76.432 499.092 75.76C504.852 74.8 508.212 74.368 509.172 74.464C510.132 74.464 510.708 74.848 510.9 75.616C511.188 76.384 511.332 77.248 511.332 78.208C511.332 84.064 509.796 90.976 506.724 98.944C503.748 106.912 502.26 112.288 502.26 115.072C502.26 117.76 502.692 119.344 503.556 119.824C504.42 120.208 505.284 120.4 506.148 120.4C508.644 120.4 511.476 118.384 514.644 114.352C517.812 110.32 520.98 104.368 524.148 96.496C522.804 93.424 522.132 90.736 522.132 88.432C522.132 86.032 522.42 83.92 522.996 82.096C524.724 76.624 527.46 73.216 531.204 71.872C531.972 71.584 532.692 71.44 533.364 71.44C534.9 71.44 535.668 72.208 535.668 73.744Z"/>
<path d="M561.26 73.6C568.268 73.6 571.772 78.016 571.772 86.848C571.772 90.88 570.716 95.2 568.604 99.808C565.916 106.048 561.884 111.712 556.508 116.8C557.756 119.2 560.012 120.4 563.276 120.4C565.868 120.4 568.316 119.104 570.62 116.512C573.5 113.536 575.564 110.944 576.812 108.736C578.06 106.432 578.972 104.752 579.548 103.696C580.124 102.64 580.844 101.152 581.708 99.232C582.668 97.216 583.244 96.016 583.436 95.632C583.628 95.152 583.964 94.912 584.444 94.912C585.404 94.816 585.884 95.152 585.884 95.92C585.884 96.208 585.788 96.544 585.596 96.928L584.732 98.944C584.156 100.288 583.724 101.248 583.436 101.824C583.148 102.4 582.62 103.456 581.852 104.992C581.18 106.432 580.556 107.584 579.98 108.448C579.5 109.312 578.78 110.464 577.82 111.904C576.956 113.344 576.14 114.496 575.372 115.36C574.7 116.224 573.836 117.184 572.78 118.24C571.724 119.296 570.716 120.112 569.756 120.688C567.356 122.128 565.1 122.848 562.988 122.848C559.052 122.848 555.98 121.6 553.772 119.104C549.356 122.368 545.276 124 541.532 124C534.524 124 531.02 119.584 531.02 110.752C531.02 106.72 532.076 102.4 534.188 97.792C537.068 91.072 541.1 85.36 546.284 80.656C551.564 75.952 556.556 73.6 561.26 73.6ZM562.844 78.064C560.252 78.064 557.18 79.792 553.628 83.248C550.076 86.704 546.908 91.408 544.124 97.36C540.764 104.272 539.084 109.936 539.084 114.352C539.084 118.768 540.764 120.976 544.124 120.976C546.524 120.976 549.212 119.68 552.188 117.088C550.652 114.88 549.884 112.528 549.884 110.032C550.076 105.904 551.756 103.84 554.924 103.84C556.172 103.84 557.18 104.272 557.948 105.136C558.812 106 559.244 106.816 559.244 107.584C559.244 108.256 559.148 108.976 558.956 109.744C560.588 107.344 562.46 103.936 564.572 99.52C566.972 94.624 568.172 89.824 568.172 85.12C568.172 80.416 566.396 78.064 562.844 78.064Z"/>
</mask>
<path d="M83.056 137.824C82.192 137.824 81.328 137.728 80.464 137.536C75.856 136.672 73.552 132.592 73.552 125.296C73.552 113.488 79.504 93.376 91.408 64.96C96.016 54.208 99.424 43.744 101.632 33.568C102.496 29.632 102.928 26.512 102.928 24.208C102.928 21.808 102.832 19.936 102.64 18.592C102.16 14.368 100.576 11.44 97.888 9.80799C93.088 7.21599 87.712 5.91999 81.76 5.91999C75.52 5.91999 68.944 7.45599 62.032 10.528C55.12 13.6 48.592 17.344 42.448 21.76C36.4 26.176 30.88 31.456 25.888 37.6C20.896 43.648 17.152 50.032 14.656 56.752C12.256 63.376 11.056 69.376 11.056 74.752C11.056 76.96 11.248 79.072 11.632 81.088C13.168 87.712 16.048 92.656 20.272 95.92C24.496 99.184 29.488 100.816 35.248 100.816C43.312 100.816 50.848 97.264 57.856 90.16C64.96 83.056 68.512 75.52 68.512 67.552C68.512 63.232 67.648 60.112 65.92 58.192C64.192 56.272 62.416 55.312 60.592 55.312C58.768 55.312 56.944 55.6 55.12 56.176C53.296 56.656 52.384 56.608 52.384 56.032C52.384 55.36 53.488 54.544 55.696 53.584C57.904 52.528 60.208 52 62.608 52C65.008 52 67.216 52.72 69.232 54.16C72.976 57.04 74.848 61.408 74.848 67.264C74.848 73.12 72.592 79.024 68.08 84.976C63.664 90.832 58.192 95.584 51.664 99.232C45.136 102.784 38.656 104.56 32.224 104.56C25.888 104.56 19.984 102.256 14.512 97.648C9.03999 92.944 5.39199 86.656 3.56799 78.784C3.08799 76.48 2.84799 74.032 2.84799 71.44C2.84799 65.392 4.33599 58.816 7.31199 51.712C10.288 44.608 14.56 38.032 20.128 31.984C25.792 25.84 31.888 20.752 38.416 16.72C44.944 12.592 51.856 9.18399 59.152 6.49599C66.448 3.71199 73.312 2.31999 79.744 2.31999C86.176 2.31999 92.032 3.32799 97.312 5.34399C106.624 9.37599 111.28 17.92 111.28 30.976C111.28 40.576 107.824 52.48 100.912 66.688C96.592 75.52 92.752 85.024 89.392 95.2C84.4 110.272 81.904 120.736 81.904 126.592C81.904 131.008 83.392 133.216 86.368 133.216C92.32 133.216 102.736 125.488 117.616 110.032C128.08 99.184 136.288 87.28 142.24 74.32C146.08 66.064 148 58.48 148 51.568C148 47.92 147.712 45.376 147.136 43.936C146.56 42.4 146.176 41.44 145.984 41.056C145.792 40.576 145.408 40.192 144.832 39.904C144.256 39.52 143.872 39.328 143.68 39.328C142.336 38.944 140.944 38.656 139.504 38.464C138.064 38.176 137.2 37.504 136.912 36.448C136.72 35.392 137.248 34.768 138.496 34.576L141.232 34.864C145.648 36.112 149.488 39.232 152.752 44.224C154.576 47.008 155.488 50.368 155.488 54.304C155.488 58.144 154.576 62.704 152.752 67.984C148.336 79.696 141.52 91.264 132.304 102.688C123.088 114.016 113.968 122.704 104.944 128.752C96.016 134.8 88.72 137.824 83.056 137.824Z" stroke="black" stroke-width="4" mask="url(#path-1-outside-1)"/>
<path d="M158.888 101.824C157.544 105.088 156.872 108.736 156.872 112.768C156.872 115.456 157.448 117.616 158.6 119.248C159.848 120.784 161.576 121.552 163.784 121.552C172.52 121.552 180.44 113.344 187.544 96.928C188.216 95.392 189.032 94.72 189.992 94.912C190.376 95.008 190.568 95.248 190.568 95.632C190.568 96.016 189.464 98.56 187.256 103.264C185.144 107.872 182.984 111.616 180.776 114.496C175.88 121.216 169.832 124.576 162.632 124.576C158.792 124.576 155.528 123.328 152.84 120.832C150.152 118.336 148.808 114.928 148.808 110.608C148.808 106.288 149.816 101.728 151.832 96.928C153.944 92.032 156.776 87.52 160.328 83.392C163.88 79.168 167.96 76.096 172.568 74.176C174.776 73.216 176.888 72.736 178.904 72.736C180.92 72.736 182.792 73.312 184.52 74.464C186.152 75.808 186.968 77.296 186.968 78.928C186.968 84.688 183.512 90.208 176.6 95.488C174.488 97.12 171.512 98.608 167.672 99.952C163.832 101.2 160.904 101.824 158.888 101.824ZM183.08 78.784C183.08 76.864 182.312 75.904 180.776 75.904C178.088 75.904 174.008 79.216 168.536 85.84C165.272 89.872 162.392 94.384 159.896 99.376C161.528 99.376 163.88 98.8 166.952 97.648C170.12 96.496 172.856 94.96 175.16 93.04C180.44 88.528 183.08 83.776 183.08 78.784Z" stroke="black" stroke-width="4" mask="url(#path-1-outside-1)"/>
<path d="M194.757 81.808C195.045 81.232 195.189 80.464 195.189 79.504C195.189 78.544 194.565 77.296 193.317 75.76L201.237 75.616C203.445 75.616 204.741 76.048 205.125 76.912C205.509 77.68 205.221 78.928 204.261 80.656L192.741 107.584C190.341 113.248 187.365 119.584 183.813 126.592C187.557 125.152 190.293 124.048 192.021 123.28C193.749 122.512 195.813 121.12 198.213 119.104C200.709 117.088 202.821 114.784 204.549 112.192C206.373 109.504 209.397 104.176 213.621 96.208C214.293 94.864 214.869 94.336 215.349 94.624C215.925 94.912 216.213 95.296 216.213 95.776C216.213 96.256 215.397 98.128 213.765 101.392C212.229 104.56 210.645 107.536 209.013 110.32C207.381 113.104 205.269 115.936 202.677 118.816C200.085 121.696 197.205 124 194.037 125.728C190.869 127.456 186.645 129.28 181.365 131.2C173.973 144.64 166.485 154.528 158.901 160.864C156.021 163.264 152.613 165.28 148.677 166.912C144.741 168.64 140.661 169.504 136.437 169.504C132.117 169.504 128.805 168.592 126.501 166.768C124.197 165.04 123.045 162.928 123.045 160.432C123.045 157.936 123.765 155.104 125.205 151.936C127.701 147.04 132.213 143.104 138.741 140.128C143.637 137.824 150.117 135.664 158.181 133.648C166.245 131.728 171.429 130.432 173.733 129.76C176.133 125.632 177.573 123.136 178.053 122.272C178.437 121.312 181.893 114.112 188.421 100.672C186.885 100.672 186.453 99.904 187.125 98.368L194.757 81.808ZM127.941 155.248C126.885 157.36 126.357 159.28 126.357 161.008C126.357 162.736 127.029 164.08 128.373 165.04C129.717 166.096 131.349 166.624 133.269 166.624C138.837 166.624 144.837 163.744 151.269 157.984C160.293 149.92 166.869 142.048 170.997 134.368C155.061 138.592 145.125 141.568 141.189 143.296C134.949 145.984 130.533 149.968 127.941 155.248ZM207.861 67.984C206.517 69.136 205.029 69.712 203.397 69.712C201.765 69.712 200.517 69.184 199.653 68.128C198.789 67.072 198.357 66.16 198.357 65.392C198.357 64.624 198.405 63.76 198.501 62.8C198.693 61.84 199.461 60.784 200.805 59.632C202.149 58.48 203.637 57.904 205.269 57.904C206.901 57.904 208.149 58.432 209.013 59.488C209.973 60.448 210.453 61.312 210.453 62.08C210.453 62.848 210.357 63.76 210.165 64.816C209.973 65.776 209.205 66.832 207.861 67.984Z" stroke="black" stroke-width="4" mask="url(#path-1-outside-1)"/>
<path d="M257.044 101.824C255.7 105.088 255.028 108.736 255.028 112.768C255.028 115.456 255.604 117.616 256.756 119.248C258.004 120.784 259.732 121.552 261.94 121.552C270.676 121.552 278.596 113.344 285.7 96.928C286.372 95.392 287.188 94.72 288.148 94.912C288.532 95.008 288.724 95.248 288.724 95.632C288.724 96.016 287.62 98.56 285.412 103.264C283.3 107.872 281.14 111.616 278.932 114.496C274.036 121.216 267.988 124.576 260.788 124.576C256.948 124.576 253.684 123.328 250.996 120.832C248.308 118.336 246.964 114.928 246.964 110.608C246.964 106.288 247.972 101.728 249.988 96.928C252.1 92.032 254.932 87.52 258.484 83.392C262.036 79.168 266.116 76.096 270.724 74.176C272.932 73.216 275.044 72.736 277.06 72.736C279.076 72.736 280.948 73.312 282.676 74.464C284.308 75.808 285.124 77.296 285.124 78.928C285.124 84.688 281.668 90.208 274.756 95.488C272.644 97.12 269.668 98.608 265.828 99.952C261.988 101.2 259.06 101.824 257.044 101.824ZM281.236 78.784C281.236 76.864 280.468 75.904 278.932 75.904C276.244 75.904 272.164 79.216 266.692 85.84C263.428 89.872 260.548 94.384 258.052 99.376C259.684 99.376 262.036 98.8 265.108 97.648C268.276 96.496 271.012 94.96 273.316 93.04C278.596 88.528 281.236 83.776 281.236 78.784Z" stroke="black" stroke-width="4" mask="url(#path-1-outside-1)"/>
<path d="M338.099 57.472C333.491 67.456 331.187 76.384 331.187 84.256C331.187 100.48 336.755 110.416 347.891 114.064C351.155 114.928 354.467 115.36 357.827 115.36C361.283 115.36 364.739 114.928 368.195 114.064C375.107 112.24 381.299 109.504 386.771 105.856C392.243 102.208 395.699 98.704 397.139 95.344C400.979 86.416 405.107 81.952 409.523 81.952C411.731 81.952 413.219 83.2 413.987 85.696C414.371 86.656 414.467 87.712 414.275 88.864C413.315 96.352 411.251 103.792 408.083 111.184C404.915 118.48 400.451 126.88 394.691 136.384C406.211 136.48 416.723 137.728 426.227 140.128C428.243 140.608 429.251 141.28 429.251 142.144C429.251 143.2 427.859 143.392 425.075 142.72C418.451 140.992 408.899 140.128 396.419 140.128C395.267 140.128 394.019 140.128 392.675 140.128C386.819 148.576 378.995 156.016 369.203 162.448C359.507 168.976 350.051 173.44 340.835 175.84C335.747 177.184 331.427 177.856 327.875 177.856C324.323 177.856 321.347 177.424 318.947 176.56C311.939 173.968 308.435 170.56 308.435 166.336C308.435 165.088 308.771 163.744 309.443 162.304C312.035 156.544 318.851 151.216 329.891 146.32C338.243 142.576 347.027 140.032 356.243 138.688C365.555 137.344 375.971 136.576 387.491 136.384C394.595 124.384 399.443 112.576 402.035 100.96L402.611 98.512C398.003 102.928 392.771 106.864 386.915 110.32C381.155 113.68 376.115 116.032 371.795 117.376C364.883 119.584 359.171 120.688 354.659 120.688C350.243 120.688 346.355 120.064 342.995 118.816C336.851 116.704 331.859 112.48 328.019 106.144C323.891 99.424 321.827 91.408 321.827 82.096C321.827 72.784 324.275 62.8 329.171 52.144C322.835 45.616 319.667 38.704 319.667 31.408C319.667 24.016 322.643 17.008 328.595 10.384C329.747 9.13599 330.563 8.70399 331.043 9.08799C331.619 9.37599 331.427 10.192 330.467 11.536C326.147 17.296 323.987 23.104 323.987 28.96C323.987 35.68 326.483 41.968 331.475 47.824C332.051 46.576 333.107 44.704 334.643 42.208C342.131 29.92 352.307 20.512 365.171 13.984C375.251 8.79999 384.995 6.20799 394.403 6.20799C396.995 6.20799 399.587 6.39999 402.179 6.78399C414.563 8.70399 422.915 13.792 427.235 22.048C428.963 25.312 429.827 28.864 429.827 32.704C429.827 36.448 428.627 40.48 426.227 44.8C420.851 54.112 411.443 60.64 398.003 64.384C390.899 66.4 383.651 67.408 376.259 67.408C360.707 67.408 347.987 64.096 338.099 57.472ZM397.715 10.672C389.459 10.672 380.723 13.456 371.507 19.024C357.971 27.088 347.459 38.656 339.971 53.728C344.483 57.184 349.667 59.632 355.523 61.072C361.475 62.512 366.227 63.232 369.779 63.232C390.035 63.232 405.347 57.808 415.715 46.96C420.899 41.392 423.491 35.824 423.491 30.256C423.491 21.424 418.547 15.472 408.659 12.4C405.011 11.248 401.363 10.672 397.715 10.672ZM315.779 167.344C315.779 170.032 318.083 171.856 322.691 172.816C324.227 173.2 325.907 173.392 327.731 173.392C334.547 173.392 343.187 170.944 353.651 166.048C366.899 160 377.411 151.408 385.187 140.272C375.107 140.56 366.275 141.328 358.691 142.576C347.747 144.208 337.331 148.192 327.443 154.528C319.667 159.52 315.779 163.792 315.779 167.344Z" stroke="black" stroke-width="4" mask="url(#path-1-outside-1)"/>
<path d="M443.827 67.984C442.483 69.136 440.995 69.712 439.363 69.712C437.731 69.712 436.435 69.136 435.475 67.984C434.515 66.832 434.131 65.44 434.323 63.808C434.611 62.176 435.427 60.784 436.771 59.632C438.115 58.48 439.603 57.904 441.235 57.904C442.867 57.904 444.163 58.48 445.123 59.632C446.179 60.784 446.563 62.176 446.275 63.808C445.987 65.44 445.171 66.832 443.827 67.984ZM429.715 120.832C431.539 120.832 433.459 119.92 435.475 118.096C439.027 114.544 443.539 107.296 449.011 96.352C449.683 94.912 450.355 94.48 451.027 95.056C451.219 95.248 451.315 95.584 451.315 96.064C451.315 96.448 450.931 97.504 450.163 99.232C449.395 100.864 448.675 102.352 448.003 103.696C447.427 105.04 446.227 107.248 444.403 110.32C442.675 113.296 441.091 115.6 439.651 117.232C435.715 121.744 431.971 124 428.419 124C424.963 124 422.467 122.944 420.931 120.832C419.395 118.72 418.627 116.368 418.627 113.776C418.627 111.184 419.251 108.352 420.499 105.28L429.715 81.808C429.907 81.232 430.003 80.464 430.003 79.504C430.003 78.544 429.427 77.296 428.275 75.76L436.195 75.616C438.403 75.616 439.699 76.048 440.083 76.912C440.467 77.68 440.179 78.928 439.219 80.656L427.699 107.584C426.067 111.136 425.251 114.16 425.251 116.656C425.251 119.44 426.739 120.832 429.715 120.832Z" stroke="black" stroke-width="4" mask="url(#path-1-outside-1)"/>
<path d="M475.338 73.6C482.346 73.6 485.85 78.016 485.85 86.848C485.85 90.88 484.794 95.2 482.682 99.808C479.994 106.048 475.962 111.712 470.586 116.8C471.834 119.2 474.09 120.4 477.354 120.4C479.946 120.4 482.394 119.104 484.698 116.512C487.578 113.536 489.642 110.944 490.89 108.736C492.138 106.432 493.05 104.752 493.626 103.696C494.202 102.64 494.922 101.152 495.786 99.232C496.746 97.216 497.322 96.016 497.514 95.632C497.706 95.152 498.042 94.912 498.522 94.912C499.482 94.816 499.962 95.152 499.962 95.92C499.962 96.208 499.866 96.544 499.674 96.928L498.81 98.944C498.234 100.288 497.802 101.248 497.514 101.824C497.226 102.4 496.698 103.456 495.93 104.992C495.258 106.432 494.634 107.584 494.058 108.448C493.578 109.312 492.858 110.464 491.898 111.904C491.034 113.344 490.218 114.496 489.45 115.36C488.778 116.224 487.914 117.184 486.858 118.24C485.802 119.296 484.794 120.112 483.834 120.688C481.434 122.128 479.178 122.848 477.066 122.848C473.13 122.848 470.058 121.6 467.85 119.104C463.434 122.368 459.354 124 455.61 124C448.602 124 445.098 119.584 445.098 110.752C445.098 106.72 446.154 102.4 448.266 97.792C451.146 91.072 455.178 85.36 460.362 80.656C465.642 75.952 470.634 73.6 475.338 73.6ZM476.922 78.064C474.33 78.064 471.258 79.792 467.706 83.248C464.154 86.704 460.986 91.408 458.202 97.36C454.842 104.272 453.162 109.936 453.162 114.352C453.162 118.768 454.842 120.976 458.202 120.976C460.602 120.976 463.29 119.68 466.266 117.088C464.73 114.88 463.962 112.528 463.962 110.032C464.154 105.904 465.834 103.84 469.002 103.84C470.25 103.84 471.258 104.272 472.026 105.136C472.89 106 473.322 106.816 473.322 107.584C473.322 108.256 473.226 108.976 473.034 109.744C474.666 107.344 476.538 103.936 478.65 99.52C481.05 94.624 482.25 89.824 482.25 85.12C482.25 80.416 480.474 78.064 476.922 78.064Z" stroke="black" stroke-width="4" mask="url(#path-1-outside-1)"/>
<path d="M535.668 73.744L534.948 76.336C530.052 91.6 525.54 102.736 521.412 109.744C515.364 119.92 509.028 125.008 502.404 125.008C497.028 125.008 494.34 122.416 494.34 117.232C494.34 113.296 495.78 107.2 498.66 98.944C497.7 100.48 496.932 101.008 496.356 100.528C495.876 99.952 495.78 99.28 496.068 98.512L498.66 93.616C500.484 89.872 501.396 86.128 501.396 82.384C501.396 78.64 500.628 76.432 499.092 75.76C504.852 74.8 508.212 74.368 509.172 74.464C510.132 74.464 510.708 74.848 510.9 75.616C511.188 76.384 511.332 77.248 511.332 78.208C511.332 84.064 509.796 90.976 506.724 98.944C503.748 106.912 502.26 112.288 502.26 115.072C502.26 117.76 502.692 119.344 503.556 119.824C504.42 120.208 505.284 120.4 506.148 120.4C508.644 120.4 511.476 118.384 514.644 114.352C517.812 110.32 520.98 104.368 524.148 96.496C522.804 93.424 522.132 90.736 522.132 88.432C522.132 86.032 522.42 83.92 522.996 82.096C524.724 76.624 527.46 73.216 531.204 71.872C531.972 71.584 532.692 71.44 533.364 71.44C534.9 71.44 535.668 72.208 535.668 73.744Z" stroke="black" stroke-width="4" mask="url(#path-1-outside-1)"/>
<path d="M561.26 73.6C568.268 73.6 571.772 78.016 571.772 86.848C571.772 90.88 570.716 95.2 568.604 99.808C565.916 106.048 561.884 111.712 556.508 116.8C557.756 119.2 560.012 120.4 563.276 120.4C565.868 120.4 568.316 119.104 570.62 116.512C573.5 113.536 575.564 110.944 576.812 108.736C578.06 106.432 578.972 104.752 579.548 103.696C580.124 102.64 580.844 101.152 581.708 99.232C582.668 97.216 583.244 96.016 583.436 95.632C583.628 95.152 583.964 94.912 584.444 94.912C585.404 94.816 585.884 95.152 585.884 95.92C585.884 96.208 585.788 96.544 585.596 96.928L584.732 98.944C584.156 100.288 583.724 101.248 583.436 101.824C583.148 102.4 582.62 103.456 581.852 104.992C581.18 106.432 580.556 107.584 579.98 108.448C579.5 109.312 578.78 110.464 577.82 111.904C576.956 113.344 576.14 114.496 575.372 115.36C574.7 116.224 573.836 117.184 572.78 118.24C571.724 119.296 570.716 120.112 569.756 120.688C567.356 122.128 565.1 122.848 562.988 122.848C559.052 122.848 555.98 121.6 553.772 119.104C549.356 122.368 545.276 124 541.532 124C534.524 124 531.02 119.584 531.02 110.752C531.02 106.72 532.076 102.4 534.188 97.792C537.068 91.072 541.1 85.36 546.284 80.656C551.564 75.952 556.556 73.6 561.26 73.6ZM562.844 78.064C560.252 78.064 557.18 79.792 553.628 83.248C550.076 86.704 546.908 91.408 544.124 97.36C540.764 104.272 539.084 109.936 539.084 114.352C539.084 118.768 540.764 120.976 544.124 120.976C546.524 120.976 549.212 119.68 552.188 117.088C550.652 114.88 549.884 112.528 549.884 110.032C550.076 105.904 551.756 103.84 554.924 103.84C556.172 103.84 557.18 104.272 557.948 105.136C558.812 106 559.244 106.816 559.244 107.584C559.244 108.256 559.148 108.976 558.956 109.744C560.588 107.344 562.46 103.936 564.572 99.52C566.972 94.624 568.172 89.824 568.172 85.12C568.172 80.416 566.396 78.064 562.844 78.064Z" stroke="black" stroke-width="4" mask="url(#path-1-outside-1)"/>
</svg>
