<svg id="WhatsApp_Logo_Icon" data-name="WhatsApp Logo Icon" xmlns="http://www.w3.org/2000/svg" xmlns:xlink="http://www.w3.org/1999/xlink" viewBox="0 0 584.04 584.04"><defs><style>.cls-1,.cls-2{fill-rule:evenodd;}.cls-1{fill:url(#linear-gradient);}.cls-2{fill:#fff;}</style><linearGradient id="linear-gradient" x1="642" y1="825.02" x2="642" y2="240.98" gradientUnits="userSpaceOnUse"><stop offset="0" stop-color="#25cf43"/><stop offset="1" stop-color="#61fd7d"/></linearGradient></defs><g id="Icon_Shape" data-name="Icon Shape"><path class="cls-1" d="M934,676.81c0,3.2-.1,10.13-.29,15.49-.47,13.11-1.51,30-3.08,37.73A126,126,0,0,1,920,761.64a112.54,112.54,0,0,1-49.55,49.49,125.77,125.77,0,0,1-31.79,10.58c-7.63,1.54-24.42,2.56-37.44,3-5.36.2-12.3.29-15.49.29l-287.57,0c-3.2,0-10.13-.1-15.49-.29-13.11-.47-30-1.51-37.73-3.08A126,126,0,0,1,413.36,811a112.54,112.54,0,0,1-49.49-49.55,125.77,125.77,0,0,1-10.58-31.79c-1.54-7.63-2.56-24.42-3-37.44-.2-5.36-.29-12.3-.29-15.48l0-287.58c0-3.2.1-10.13.29-15.49.47-13.11,1.51-30,3.08-37.73A126,126,0,0,1,364,304.36a112.54,112.54,0,0,1,49.55-49.49,125.77,125.77,0,0,1,31.79-10.58c7.63-1.54,24.42-2.56,37.44-3,5.36-.2,12.3-.29,15.48-.29l287.58,0c3.2,0,10.13.1,15.49.29,13.11.47,30,1.51,37.73,3.08A126,126,0,0,1,870.64,255a112.54,112.54,0,0,1,49.49,49.55,125.77,125.77,0,0,1,10.58,31.79c1.54,7.63,2.56,24.42,3,37.44.19,5.36.28,12.3.28,15.49Z" transform="translate(-349.98 -240.98)"/></g><g id="WA_Logo" data-name="WA Logo"><path class="cls-2" d="M795.6,380.79a206.87,206.87,0,0,0-147.27-61c-114.75,0-208.15,93.36-208.19,208.11a207.64,207.64,0,0,0,27.79,104L438.39,739.75l110.37-28.94a208.12,208.12,0,0,0,99.48,25.34h.09c114.74,0,208.14-93.37,208.19-208.13A206.83,206.83,0,0,0,795.6,380.79ZM648.33,701h-.07a172.78,172.78,0,0,1-88.07-24.11l-6.32-3.75-65.49,17.18,17.48-63.83-4.12-6.55a172.47,172.47,0,0,1-26.45-92.06c0-95.37,77.66-173,173.11-173A173,173,0,0,1,821.37,528C821.33,623.39,743.7,701,648.33,701Zm94.91-129.55c-5.2-2.6-30.77-15.18-35.54-16.92s-8.24-2.6-11.71,2.6S682.56,574,679.52,577.51s-6.07,3.91-11.27,1.31-22-8.1-41.83-25.82c-15.46-13.78-25.9-30.81-28.94-36s-.32-8,2.28-10.61c2.34-2.33,5.2-6.08,7.81-9.11s3.46-5.21,5.2-8.68.86-6.51-.44-9.11-11.7-28.2-16-38.61c-4.23-10.14-8.52-8.77-11.71-8.93-3-.15-6.5-.18-10-.18a19.1,19.1,0,0,0-13.87,6.51c-4.77,5.2-18.21,17.78-18.21,43.38s18.64,50.32,21.24,53.79,36.68,56,88.87,78.53a302.13,302.13,0,0,0,29.65,10.95c12.46,4,23.8,3.4,32.77,2.06,10-1.49,30.77-12.58,35.11-24.73s4.33-22.56,3-24.73S748.44,574,743.24,571.44Z" transform="translate(-349.98 -240.98)"/></g></svg>