<svg width="586" height="178" viewBox="0 0 586 178" fill="none" xmlns="http://www.w3.org/2000/svg" style="">
<path d="M82.056 136.824C81.192 136.824 80.328 136.728 79.464 136.536C74.856 135.672 72.552 131.592 72.552 124.296C72.552 112.488 78.504 92.376 90.408 63.96C95.016 53.208 98.424 42.744 100.632 32.568C101.496 28.632 101.928 25.512 101.928 23.208C101.928 20.808 101.832 18.936 101.64 17.592C101.16 13.368 99.576 10.44 96.888 8.80799C92.088 6.21599 86.712 4.91999 80.76 4.91999C74.52 4.91999 67.944 6.45599 61.032 9.52799C54.12 12.6 47.592 16.344 41.448 20.76C35.4 25.176 29.88 30.456 24.888 36.6C19.896 42.648 16.152 49.032 13.656 55.752C11.256 62.376 10.056 68.376 10.056 73.752C10.056 75.96 10.248 78.072 10.632 80.088C12.168 86.712 15.048 91.656 19.272 94.92C23.496 98.184 28.488 99.816 34.248 99.816C42.312 99.816 49.848 96.264 56.856 89.16C63.96 82.056 67.512 74.52 67.512 66.552C67.512 62.232 66.648 59.112 64.92 57.192C63.192 55.272 61.416 54.312 59.592 54.312C57.768 54.312 55.944 54.6 54.12 55.176C52.296 55.656 51.384 55.608 51.384 55.032C51.384 54.36 52.488 53.544 54.696 52.584C56.904 51.528 59.208 51 61.608 51C64.008 51 66.216 51.72 68.232 53.16C71.976 56.04 73.848 60.408 73.848 66.264C73.848 72.12 71.592 78.024 67.08 83.976C62.664 89.832 57.192 94.584 50.664 98.232C44.136 101.784 37.656 103.56 31.224 103.56C24.888 103.56 18.984 101.256 13.512 96.648C8.03999 91.944 4.39199 85.656 2.56799 77.784C2.08799 75.48 1.84799 73.032 1.84799 70.44C1.84799 64.392 3.33599 57.816 6.31199 50.712C9.28799 43.608 13.56 37.032 19.128 30.984C24.792 24.84 30.888 19.752 37.416 15.72C43.944 11.592 50.856 8.18399 58.152 5.49599C65.448 2.71199 72.312 1.31999 78.744 1.31999C85.176 1.31999 91.032 2.32799 96.312 4.34399C105.624 8.37599 110.28 16.92 110.28 29.976C110.28 39.576 106.824 51.48 99.912 65.688C95.592 74.52 91.752 84.024 88.392 94.2C83.4 109.272 80.904 119.736 80.904 125.592C80.904 130.008 82.392 132.216 85.368 132.216C91.32 132.216 101.736 124.488 116.616 109.032C127.08 98.184 135.288 86.28 141.24 73.32C145.08 65.064 147 57.48 147 50.568C147 46.92 146.712 44.376 146.136 42.936C145.56 41.4 145.176 40.44 144.984 40.056C144.792 39.576 144.408 39.192 143.832 38.904C143.256 38.52 142.872 38.328 142.68 38.328C141.336 37.944 139.944 37.656 138.504 37.464C137.064 37.176 136.2 36.504 135.912 35.448C135.72 34.392 136.248 33.768 137.496 33.576L140.232 33.864C144.648 35.112 148.488 38.232 151.752 43.224C153.576 46.008 154.488 49.368 154.488 53.304C154.488 57.144 153.576 61.704 151.752 66.984C147.336 78.696 140.52 90.264 131.304 101.688C122.088 113.016 112.968 121.704 103.944 127.752C95.016 133.8 87.72 136.824 82.056 136.824Z" stroke="black" stroke-width="2" class="gAWxtMMe_0"></path>
<path d="M157.888 100.824C156.544 104.088 155.872 107.736 155.872 111.768C155.872 114.456 156.448 116.616 157.6 118.248C158.848 119.784 160.576 120.552 162.784 120.552C171.52 120.552 179.44 112.344 186.544 95.928C187.216 94.392 188.032 93.72 188.992 93.912C189.376 94.008 189.568 94.248 189.568 94.632C189.568 95.016 188.464 97.56 186.256 102.264C184.144 106.872 181.984 110.616 179.776 113.496C174.88 120.216 168.832 123.576 161.632 123.576C157.792 123.576 154.528 122.328 151.84 119.832C149.152 117.336 147.808 113.928 147.808 109.608C147.808 105.288 148.816 100.728 150.832 95.928C152.944 91.032 155.776 86.52 159.328 82.392C162.88 78.168 166.96 75.096 171.568 73.176C173.776 72.216 175.888 71.736 177.904 71.736C179.92 71.736 181.792 72.312 183.52 73.464C185.152 74.808 185.968 76.296 185.968 77.928C185.968 83.688 182.512 89.208 175.6 94.488C173.488 96.12 170.512 97.608 166.672 98.952C162.832 100.2 159.904 100.824 157.888 100.824ZM182.08 77.784C182.08 75.864 181.312 74.904 179.776 74.904C177.088 74.904 173.008 78.216 167.536 84.84C164.272 88.872 161.392 93.384 158.896 98.376C160.528 98.376 162.88 97.8 165.952 96.648C169.12 95.496 171.856 93.96 174.16 92.04C179.44 87.528 182.08 82.776 182.08 77.784Z" stroke="black" stroke-width="2" class="gAWxtMMe_1"></path>
<path d="M193.757 80.808C194.045 80.232 194.189 79.464 194.189 78.504C194.189 77.544 193.565 76.296 192.317 74.76L200.237 74.616C202.445 74.616 203.741 75.048 204.125 75.912C204.509 76.68 204.221 77.928 203.261 79.656L191.741 106.584C189.341 112.248 186.365 118.584 182.813 125.592C186.557 124.152 189.293 123.048 191.021 122.28C192.749 121.512 194.813 120.12 197.213 118.104C199.709 116.088 201.821 113.784 203.549 111.192C205.373 108.504 208.397 103.176 212.621 95.208C213.293 93.864 213.869 93.336 214.349 93.624C214.925 93.912 215.213 94.296 215.213 94.776C215.213 95.256 214.397 97.128 212.765 100.392C211.229 103.56 209.645 106.536 208.013 109.32C206.381 112.104 204.269 114.936 201.677 117.816C199.085 120.696 196.205 123 193.037 124.728C189.869 126.456 185.645 128.28 180.365 130.2C172.973 143.64 165.485 153.528 157.901 159.864C155.021 162.264 151.613 164.28 147.677 165.912C143.741 167.64 139.661 168.504 135.437 168.504C131.117 168.504 127.805 167.592 125.501 165.768C123.197 164.04 122.045 161.928 122.045 159.432C122.045 156.936 122.765 154.104 124.205 150.936C126.701 146.04 131.213 142.104 137.741 139.128C142.637 136.824 149.117 134.664 157.181 132.648C165.245 130.728 170.429 129.432 172.733 128.76C175.133 124.632 176.573 122.136 177.053 121.272C177.437 120.312 180.893 113.112 187.421 99.672C185.885 99.672 185.453 98.904 186.125 97.368L193.757 80.808ZM126.941 154.248C125.885 156.36 125.357 158.28 125.357 160.008C125.357 161.736 126.029 163.08 127.373 164.04C128.717 165.096 130.349 165.624 132.269 165.624C137.837 165.624 143.837 162.744 150.269 156.984C159.293 148.92 165.869 141.048 169.997 133.368C154.061 137.592 144.125 140.568 140.189 142.296C133.949 144.984 129.533 148.968 126.941 154.248ZM206.861 66.984C205.517 68.136 204.029 68.712 202.397 68.712C200.765 68.712 199.517 68.184 198.653 67.128C197.789 66.072 197.357 65.16 197.357 64.392C197.357 63.624 197.405 62.76 197.501 61.8C197.693 60.84 198.461 59.784 199.805 58.632C201.149 57.48 202.637 56.904 204.269 56.904C205.901 56.904 207.149 57.432 208.013 58.488C208.973 59.448 209.453 60.312 209.453 61.08C209.453 61.848 209.357 62.76 209.165 63.816C208.973 64.776 208.205 65.832 206.861 66.984Z" stroke="black" stroke-width="2" class="gAWxtMMe_2"></path>
<path d="M256.044 100.824C254.7 104.088 254.028 107.736 254.028 111.768C254.028 114.456 254.604 116.616 255.756 118.248C257.004 119.784 258.732 120.552 260.94 120.552C269.676 120.552 277.596 112.344 284.7 95.928C285.372 94.392 286.188 93.72 287.148 93.912C287.532 94.008 287.724 94.248 287.724 94.632C287.724 95.016 286.62 97.56 284.412 102.264C282.3 106.872 280.14 110.616 277.932 113.496C273.036 120.216 266.988 123.576 259.788 123.576C255.948 123.576 252.684 122.328 249.996 119.832C247.308 117.336 245.964 113.928 245.964 109.608C245.964 105.288 246.972 100.728 248.988 95.928C251.1 91.032 253.932 86.52 257.484 82.392C261.036 78.168 265.116 75.096 269.724 73.176C271.932 72.216 274.044 71.736 276.06 71.736C278.076 71.736 279.948 72.312 281.676 73.464C283.308 74.808 284.124 76.296 284.124 77.928C284.124 83.688 280.668 89.208 273.756 94.488C271.644 96.12 268.668 97.608 264.828 98.952C260.988 100.2 258.06 100.824 256.044 100.824ZM280.236 77.784C280.236 75.864 279.468 74.904 277.932 74.904C275.244 74.904 271.164 78.216 265.692 84.84C262.428 88.872 259.548 93.384 257.052 98.376C258.684 98.376 261.036 97.8 264.108 96.648C267.276 95.496 270.012 93.96 272.316 92.04C277.596 87.528 280.236 82.776 280.236 77.784Z" stroke="black" stroke-width="2" class="gAWxtMMe_3"></path>
<path d="M337.099 56.472C332.491 66.456 330.187 75.384 330.187 83.256C330.187 99.48 335.755 109.416 346.891 113.064C350.155 113.928 353.467 114.36 356.827 114.36C360.283 114.36 363.739 113.928 367.195 113.064C374.107 111.24 380.299 108.504 385.771 104.856C391.243 101.208 394.699 97.704 396.139 94.344C399.979 85.416 404.107 80.952 408.523 80.952C410.731 80.952 412.219 82.2 412.987 84.696C413.371 85.656 413.467 86.712 413.275 87.864C412.315 95.352 410.251 102.792 407.083 110.184C403.915 117.48 399.451 125.88 393.691 135.384C405.211 135.48 415.723 136.728 425.227 139.128C427.243 139.608 428.251 140.28 428.251 141.144C428.251 142.2 426.859 142.392 424.075 141.72C417.451 139.992 407.899 139.128 395.419 139.128C394.267 139.128 393.019 139.128 391.675 139.128C385.819 147.576 377.995 155.016 368.203 161.448C358.507 167.976 349.051 172.44 339.835 174.84C334.747 176.184 330.427 176.856 326.875 176.856C323.323 176.856 320.347 176.424 317.947 175.56C310.939 172.968 307.435 169.56 307.435 165.336C307.435 164.088 307.771 162.744 308.443 161.304C311.035 155.544 317.851 150.216 328.891 145.32C337.243 141.576 346.027 139.032 355.243 137.688C364.555 136.344 374.971 135.576 386.491 135.384C393.595 123.384 398.443 111.576 401.035 99.96L401.611 97.512C397.003 101.928 391.771 105.864 385.915 109.32C380.155 112.68 375.115 115.032 370.795 116.376C363.883 118.584 358.171 119.688 353.659 119.688C349.243 119.688 345.355 119.064 341.995 117.816C335.851 115.704 330.859 111.48 327.019 105.144C322.891 98.424 320.827 90.408 320.827 81.096C320.827 71.784 323.275 61.8 328.171 51.144C321.835 44.616 318.667 37.704 318.667 30.408C318.667 23.016 321.643 16.008 327.595 9.38399C328.747 8.13599 329.563 7.70399 330.043 8.08799C330.619 8.37599 330.427 9.19199 329.467 10.536C325.147 16.296 322.987 22.104 322.987 27.96C322.987 34.68 325.483 40.968 330.475 46.824C331.051 45.576 332.107 43.704 333.643 41.208C341.131 28.92 351.307 19.512 364.171 12.984C374.251 7.79999 383.995 5.20799 393.403 5.20799C395.995 5.20799 398.587 5.39999 401.179 5.78399C413.563 7.70399 421.915 12.792 426.235 21.048C427.963 24.312 428.827 27.864 428.827 31.704C428.827 35.448 427.627 39.48 425.227 43.8C419.851 53.112 410.443 59.64 397.003 63.384C389.899 65.4 382.651 66.408 375.259 66.408C359.707 66.408 346.987 63.096 337.099 56.472ZM396.715 9.67199C388.459 9.67199 379.723 12.456 370.507 18.024C356.971 26.088 346.459 37.656 338.971 52.728C343.483 56.184 348.667 58.632 354.523 60.072C360.475 61.512 365.227 62.232 368.779 62.232C389.035 62.232 404.347 56.808 414.715 45.96C419.899 40.392 422.491 34.824 422.491 29.256C422.491 20.424 417.547 14.472 407.659 11.4C404.011 10.248 400.363 9.67199 396.715 9.67199ZM314.779 166.344C314.779 169.032 317.083 170.856 321.691 171.816C323.227 172.2 324.907 172.392 326.731 172.392C333.547 172.392 342.187 169.944 352.651 165.048C365.899 159 376.411 150.408 384.187 139.272C374.107 139.56 365.275 140.328 357.691 141.576C346.747 143.208 336.331 147.192 326.443 153.528C318.667 158.52 314.779 162.792 314.779 166.344Z" stroke="black" stroke-width="2" class="gAWxtMMe_4"></path>
<path d="M442.827 66.984C441.483 68.136 439.995 68.712 438.363 68.712C436.731 68.712 435.435 68.136 434.475 66.984C433.515 65.832 433.131 64.44 433.323 62.808C433.611 61.176 434.427 59.784 435.771 58.632C437.115 57.48 438.603 56.904 440.235 56.904C441.867 56.904 443.163 57.48 444.123 58.632C445.179 59.784 445.563 61.176 445.275 62.808C444.987 64.44 444.171 65.832 442.827 66.984ZM428.715 119.832C430.539 119.832 432.459 118.92 434.475 117.096C438.027 113.544 442.539 106.296 448.011 95.352C448.683 93.912 449.355 93.48 450.027 94.056C450.219 94.248 450.315 94.584 450.315 95.064C450.315 95.448 449.931 96.504 449.163 98.232C448.395 99.864 447.675 101.352 447.003 102.696C446.427 104.04 445.227 106.248 443.403 109.32C441.675 112.296 440.091 114.6 438.651 116.232C434.715 120.744 430.971 123 427.419 123C423.963 123 421.467 121.944 419.931 119.832C418.395 117.72 417.627 115.368 417.627 112.776C417.627 110.184 418.251 107.352 419.499 104.28L428.715 80.808C428.907 80.232 429.003 79.464 429.003 78.504C429.003 77.544 428.427 76.296 427.275 74.76L435.195 74.616C437.403 74.616 438.699 75.048 439.083 75.912C439.467 76.68 439.179 77.928 438.219 79.656L426.699 106.584C425.067 110.136 424.251 113.16 424.251 115.656C424.251 118.44 425.739 119.832 428.715 119.832Z" stroke="black" stroke-width="2" class="gAWxtMMe_5"></path>
<path d="M474.338 72.6C481.346 72.6 484.85 77.016 484.85 85.848C484.85 89.88 483.794 94.2 481.682 98.808C478.994 105.048 474.962 110.712 469.586 115.8C470.834 118.2 473.09 119.4 476.354 119.4C478.946 119.4 481.394 118.104 483.698 115.512C486.578 112.536 488.642 109.944 489.89 107.736C491.138 105.432 492.05 103.752 492.626 102.696C493.202 101.64 493.922 100.152 494.786 98.232C495.746 96.216 496.322 95.016 496.514 94.632C496.706 94.152 497.042 93.912 497.522 93.912C498.482 93.816 498.962 94.152 498.962 94.92C498.962 95.208 498.866 95.544 498.674 95.928L497.81 97.944C497.234 99.288 496.802 100.248 496.514 100.824C496.226 101.4 495.698 102.456 494.93 103.992C494.258 105.432 493.634 106.584 493.058 107.448C492.578 108.312 491.858 109.464 490.898 110.904C490.034 112.344 489.218 113.496 488.45 114.36C487.778 115.224 486.914 116.184 485.858 117.24C484.802 118.296 483.794 119.112 482.834 119.688C480.434 121.128 478.178 121.848 476.066 121.848C472.13 121.848 469.058 120.6 466.85 118.104C462.434 121.368 458.354 123 454.61 123C447.602 123 444.098 118.584 444.098 109.752C444.098 105.72 445.154 101.4 447.266 96.792C450.146 90.072 454.178 84.36 459.362 79.656C464.642 74.952 469.634 72.6 474.338 72.6ZM475.922 77.064C473.33 77.064 470.258 78.792 466.706 82.248C463.154 85.704 459.986 90.408 457.202 96.36C453.842 103.272 452.162 108.936 452.162 113.352C452.162 117.768 453.842 119.976 457.202 119.976C459.602 119.976 462.29 118.68 465.266 116.088C463.73 113.88 462.962 111.528 462.962 109.032C463.154 104.904 464.834 102.84 468.002 102.84C469.25 102.84 470.258 103.272 471.026 104.136C471.89 105 472.322 105.816 472.322 106.584C472.322 107.256 472.226 107.976 472.034 108.744C473.666 106.344 475.538 102.936 477.65 98.52C480.05 93.624 481.25 88.824 481.25 84.12C481.25 79.416 479.474 77.064 475.922 77.064Z" stroke="black" stroke-width="2" class="gAWxtMMe_6"></path>
<path d="M534.668 72.744L533.948 75.336C529.052 90.6 524.54 101.736 520.412 108.744C514.364 118.92 508.028 124.008 501.404 124.008C496.028 124.008 493.34 121.416 493.34 116.232C493.34 112.296 494.78 106.2 497.66 97.944C496.7 99.48 495.932 100.008 495.356 99.528C494.876 98.952 494.78 98.28 495.068 97.512L497.66 92.616C499.484 88.872 500.396 85.128 500.396 81.384C500.396 77.64 499.628 75.432 498.092 74.76C503.852 73.8 507.212 73.368 508.172 73.464C509.132 73.464 509.708 73.848 509.9 74.616C510.188 75.384 510.332 76.248 510.332 77.208C510.332 83.064 508.796 89.976 505.724 97.944C502.748 105.912 501.26 111.288 501.26 114.072C501.26 116.76 501.692 118.344 502.556 118.824C503.42 119.208 504.284 119.4 505.148 119.4C507.644 119.4 510.476 117.384 513.644 113.352C516.812 109.32 519.98 103.368 523.148 95.496C521.804 92.424 521.132 89.736 521.132 87.432C521.132 85.032 521.42 82.92 521.996 81.096C523.724 75.624 526.46 72.216 530.204 70.872C530.972 70.584 531.692 70.44 532.364 70.44C533.9 70.44 534.668 71.208 534.668 72.744Z" stroke="black" stroke-width="2" class="gAWxtMMe_7"></path>
<path d="M560.26 72.6C567.268 72.6 570.772 77.016 570.772 85.848C570.772 89.88 569.716 94.2 567.604 98.808C564.916 105.048 560.884 110.712 555.508 115.8C556.756 118.2 559.012 119.4 562.276 119.4C564.868 119.4 567.316 118.104 569.62 115.512C572.5 112.536 574.564 109.944 575.812 107.736C577.06 105.432 577.972 103.752 578.548 102.696C579.124 101.64 579.844 100.152 580.708 98.232C581.668 96.216 582.244 95.016 582.436 94.632C582.628 94.152 582.964 93.912 583.444 93.912C584.404 93.816 584.884 94.152 584.884 94.92C584.884 95.208 584.788 95.544 584.596 95.928L583.732 97.944C583.156 99.288 582.724 100.248 582.436 100.824C582.148 101.4 581.62 102.456 580.852 103.992C580.18 105.432 579.556 106.584 578.98 107.448C578.5 108.312 577.78 109.464 576.82 110.904C575.956 112.344 575.14 113.496 574.372 114.36C573.7 115.224 572.836 116.184 571.78 117.24C570.724 118.296 569.716 119.112 568.756 119.688C566.356 121.128 564.1 121.848 561.988 121.848C558.052 121.848 554.98 120.6 552.772 118.104C548.356 121.368 544.276 123 540.532 123C533.524 123 530.02 118.584 530.02 109.752C530.02 105.72 531.076 101.4 533.188 96.792C536.068 90.072 540.1 84.36 545.284 79.656C550.564 74.952 555.556 72.6 560.26 72.6ZM561.844 77.064C559.252 77.064 556.18 78.792 552.628 82.248C549.076 85.704 545.908 90.408 543.124 96.36C539.764 103.272 538.084 108.936 538.084 113.352C538.084 117.768 539.764 119.976 543.124 119.976C545.524 119.976 548.212 118.68 551.188 116.088C549.652 113.88 548.884 111.528 548.884 109.032C549.076 104.904 550.756 102.84 553.924 102.84C555.172 102.84 556.18 103.272 556.948 104.136C557.812 105 558.244 105.816 558.244 106.584C558.244 107.256 558.148 107.976 557.956 108.744C559.588 106.344 561.46 102.936 563.572 98.52C565.972 93.624 567.172 88.824 567.172 84.12C567.172 79.416 565.396 77.064 561.844 77.064Z" stroke="black" stroke-width="2" class="gAWxtMMe_8"></path>
<style data-made-with="vivus-instant">.gAWxtMMe_0{stroke-dasharray:1071 1073;stroke-dashoffset:1072;animation:gAWxtMMe_draw 3440ms linear 0ms forwards;}.gAWxtMMe_1{stroke-dasharray:303 305;stroke-dashoffset:304;animation:gAWxtMMe_draw 3440ms linear 7ms forwards;}.gAWxtMMe_2{stroke-dasharray:526 528;stroke-dashoffset:527;animation:gAWxtMMe_draw 3440ms linear 15ms forwards;}.gAWxtMMe_3{stroke-dasharray:303 305;stroke-dashoffset:304;animation:gAWxtMMe_draw 3440ms linear 22ms forwards;}.gAWxtMMe_4{stroke-dasharray:1354 1356;stroke-dashoffset:1355;animation:gAWxtMMe_draw 3440ms linear 30ms forwards;}.gAWxtMMe_5{stroke-dasharray:230 232;stroke-dashoffset:231;animation:gAWxtMMe_draw 3440ms linear 37ms forwards;}.gAWxtMMe_6{stroke-dasharray:357 359;stroke-dashoffset:358;animation:gAWxtMMe_draw 3440ms linear 45ms forwards;}.gAWxtMMe_7{stroke-dasharray:253 255;stroke-dashoffset:254;animation:gAWxtMMe_draw 3440ms linear 52ms forwards;}.gAWxtMMe_8{stroke-dasharray:357 359;stroke-dashoffset:358;animation:gAWxtMMe_draw 3440ms linear 60ms forwards;}@keyframes gAWxtMMe_draw{100%{stroke-dashoffset:0;}}@keyframes gAWxtMMe_fade{0%{stroke-opacity:1;}94.8051948051948%{stroke-opacity:1;}100%{stroke-opacity:0;}}</style></svg>
